<svg width="313" height="430" viewBox="0 0 313 430" fill="none" xmlns="http://www.w3.org/2000/svg">
<g filter="url(#filter0_d_80_41)">
<path d="M73.3843 368.395L65 140.933L67.6584 147.392L68.6809 139.722L77.8831 146.383L75.8382 140.328L83.8135 137.906L75.8382 135.686L78.4966 133.466L71.3393 130.236V126.2L77.2697 122.163L79.9281 111.063L84.2225 111.265L89.1303 107.632L87.0854 103.797H84.2225L85.8584 100.568L85.2449 97.5402L89.1303 98.1457L90.9708 92.4944L96.4921 94.7146L109.784 79.5774L111.625 84.0176L118.987 84.6231L121.645 82.2012L125.121 85.8341L129.416 82.2012L131.87 83.4121L139.845 81.3939L137.8 78.7701L139.027 70.8988H135.346L136.573 69.2841L133.915 66.4585H129.416L126.144 68.6786L120.213 62.4219L125.121 60L129.416 64.0366L127.78 60H131.87L139.027 67.4677L144.344 64.0366L148.843 71.9079H152.933L157.636 74.9353L165.202 71.9079L163.975 75.7427L167.656 74.9353L170.724 76.55V78.7701H177.267L182.584 77.3573L189.128 83.4121L193.831 84.6231L195.467 80.5865L204.874 78.7701L202.625 84.6231L210.191 80.5865V87.6506H214.485L216.939 84.6231L213.054 82.2012L222.461 76.55L223.074 84.6231L227.369 82.2012L229.413 85.8341L226.755 89.6688L220.211 95.7237V98.7511L223.074 99.7603L220.211 100.366V102.99L216.939 106.017V100.971L212.236 102.99L207.533 106.017L208.146 108.843L205.897 113.081L207.533 115.503L209.578 113.686L206.51 123.778L196.081 135.686L196.694 140.126L210.191 149.007L213.463 153.649L219.189 157.08L222.87 155.869L222.052 160.914L228.187 161.52L236.162 166.364L241.479 167.373L247 175.244L240.252 369L73.3843 368.395Z" fill="#D99830"/>
<path d="M89.9483 61.4128L93.2202 70.2933L103.036 77.5591L114.692 65.853L109.171 61.4128L107.944 64.0366L105.49 63.4311L103.036 65.0457L100.378 63.4311L96.4921 65.853L89.9483 61.4128Z" fill="#D99830"/>
<path d="M87.6989 65.0457L83.2 74.3298L86.8809 75.339L89.9483 74.3298L94.6517 75.339L87.6989 65.0457Z" fill="#D99830"/>
<path d="M215.508 125.191L217.553 123.172L216.939 116.714L220.211 117.521L218.984 114.494L221.643 116.31L223.074 113.686L224.301 117.521L227.369 115.099V118.329L224.915 121.558L223.074 123.778L228.187 124.383L228.8 127.411L215.508 125.191Z" fill="#D99830"/>
<path d="M73.3843 368.395L65 140.933L67.6584 147.392L68.6809 139.722L77.8831 146.383L75.8382 140.328L83.8135 137.906L75.8382 135.686L78.4966 133.466L71.3393 130.236V126.2L77.2697 122.163L79.9281 111.063L84.2225 111.265L89.1303 107.632L87.0854 103.797H84.2225L85.8584 100.568L85.2449 97.5402L89.1303 98.1457L90.9708 92.4944L96.4921 94.7146L109.784 79.5774L111.625 84.0176L118.987 84.6231L121.645 82.2012L125.121 85.8341L129.416 82.2012L131.87 83.4121L139.845 81.3939L137.8 78.7701L139.027 70.8988H135.346L136.573 69.2841L133.915 66.4585H129.416L126.144 68.6786L120.213 62.4219L125.121 60L129.416 64.0366L127.78 60H131.87L139.027 67.4677L144.344 64.0366L148.843 71.9079H152.933L157.636 74.9353L165.202 71.9079L163.975 75.7427L167.656 74.9353L170.724 76.55V78.7701H177.267L182.584 77.3573L189.128 83.4121L193.831 84.6231L195.467 80.5865L204.874 78.7701L202.625 84.6231L210.191 80.5865V87.6506H214.485L216.939 84.6231L213.054 82.2012L222.461 76.55L223.074 84.6231L227.369 82.2012L229.413 85.8341L226.755 89.6688L220.211 95.7237V98.7511L223.074 99.7603L220.211 100.366V102.99L216.939 106.017V100.971L212.236 102.99L207.533 106.017L208.146 108.843L205.897 113.081L207.533 115.503L209.578 113.686L206.51 123.778L196.081 135.686L196.694 140.126L210.191 149.007L213.463 153.649L219.189 157.08L222.87 155.869L222.052 160.914L228.187 161.52L236.162 166.364L241.479 167.373L247 175.244L240.252 369L73.3843 368.395Z" stroke="black"/>
<path d="M89.9483 61.4128L93.2202 70.2933L103.036 77.5591L114.692 65.853L109.171 61.4128L107.944 64.0366L105.49 63.4311L103.036 65.0457L100.378 63.4311L96.4921 65.853L89.9483 61.4128Z" stroke="black"/>
<path d="M87.6989 65.0457L83.2 74.3298L86.8809 75.339L89.9483 74.3298L94.6517 75.339L87.6989 65.0457Z" stroke="black"/>
<path d="M215.508 125.191L217.553 123.172L216.939 116.714L220.211 117.521L218.984 114.494L221.643 116.31L223.074 113.686L224.301 117.521L227.369 115.099V118.329L224.915 121.558L223.074 123.778L228.187 124.383L228.8 127.411L215.508 125.191Z" stroke="black"/>
</g>
<defs>
<filter id="filter0_d_80_41" x="54.5002" y="49.3982" width="203.005" height="330.104" filterUnits="userSpaceOnUse" color-interpolation-filters="sRGB">
<feFlood flood-opacity="0" result="BackgroundImageFix"/>
<feColorMatrix in="SourceAlpha" type="matrix" values="0 0 0 0 0 0 0 0 0 0 0 0 0 0 0 0 0 0 127 0" result="hardAlpha"/>
<feOffset/>
<feGaussianBlur stdDeviation="5"/>
<feComposite in2="hardAlpha" operator="out"/>
<feColorMatrix type="matrix" values="0 0 0 0 0 0 0 0 0 0 0 0 0 0 0 0 0 0 0.5 0"/>
<feBlend mode="normal" in2="BackgroundImageFix" result="effect1_dropShadow_80_41"/>
<feBlend mode="normal" in="SourceGraphic" in2="effect1_dropShadow_80_41" result="shape"/>
</filter>
</defs>
</svg>
