<svg width="295" height="209" viewBox="0 0 295 209" fill="none" xmlns="http://www.w3.org/2000/svg">
<g filter="url(#filter0_d_80_73)">
<path d="M196.495 193.768L193.463 198L167.798 180.066V168.177L163.554 162.333H154.258L149.003 166.565L141.93 160.721H132.028L121.115 156.288H114.85L112.627 160.721L107.777 156.288V153.064L94.8432 143.996L90.1951 139.764V130.293L79.0801 124.449L75.6446 128.278V124.449L73.4216 117.397L64.3275 113.165L60.0836 117.397L52 113.165L58.4669 11L200.334 24.5011L210.843 17.8513L214.885 20.0679L221.958 17.8513L227.617 21.8815L236.711 24.5011L239.54 29.3373L242.774 34.778L249.24 29.3373L252.878 32.1584L256.111 27.1207V21.8815L265.003 17.8513L267.631 21.8815H276.927L284 20.0679L282.383 32.1584L276.927 40.2188V44.6519L272.077 55.3319L267.631 69.4375V74.6767L263.387 76.8933V83.3416L252.878 93.6185V102.283H249.24L239.54 110.344L230.042 124.449L220.341 135.129L214.885 153.064L207.003 156.288L202.962 168.177L193.463 188.731L196.495 193.768Z" fill="#D99830"/>
<path d="M196.495 193.768L193.463 198L167.798 180.066V168.177L163.554 162.333H154.258L149.003 166.565L141.93 160.721H132.028L121.115 156.288H114.85L112.627 160.721L107.777 156.288V153.064L94.8432 143.996L90.1951 139.764V130.293L79.0801 124.449L75.6446 128.278V124.449L73.4216 117.397L64.3275 113.165L60.0836 117.397L52 113.165L58.4669 11L200.334 24.5011L210.843 17.8513L214.885 20.0679L221.958 17.8513L227.617 21.8815L236.711 24.5011L239.54 29.3373L242.774 34.778L249.24 29.3373L252.878 32.1584L256.111 27.1207V21.8815L265.003 17.8513L267.631 21.8815H276.927L284 20.0679L282.383 32.1584L276.927 40.2188V44.6519L272.077 55.3319L267.631 69.4375V74.6767L263.387 76.8933V83.3416L252.878 93.6185V102.283H249.24L239.54 110.344L230.042 124.449L220.341 135.129L214.885 153.064L207.003 156.288L202.962 168.177L193.463 188.731L196.495 193.768Z" stroke="black"/>
</g>
<defs>
<filter id="filter0_d_80_73" x="41.4805" y="0.453369" width="253.113" height="208.24" filterUnits="userSpaceOnUse" color-interpolation-filters="sRGB">
<feFlood flood-opacity="0" result="BackgroundImageFix"/>
<feColorMatrix in="SourceAlpha" type="matrix" values="0 0 0 0 0 0 0 0 0 0 0 0 0 0 0 0 0 0 127 0" result="hardAlpha"/>
<feOffset/>
<feGaussianBlur stdDeviation="5"/>
<feComposite in2="hardAlpha" operator="out"/>
<feColorMatrix type="matrix" values="0 0 0 0 0 0 0 0 0 0 0 0 0 0 0 0 0 0 0.5 0"/>
<feBlend mode="normal" in2="BackgroundImageFix" result="effect1_dropShadow_80_73"/>
<feBlend mode="normal" in="SourceGraphic" in2="effect1_dropShadow_80_73" result="shape"/>
</filter>
</defs>
</svg>
