<svg width="390" height="485" viewBox="0 0 390 485" fill="none" xmlns="http://www.w3.org/2000/svg">
<g filter="url(#filter0_d_79_68)">
<path d="M250.678 434.269L109.253 420.463L111.875 358.942L57 356.912L63.6577 163.417L67.4909 165.041L72.9381 165.853L78.587 168.696H83.2272L86.0517 177.426L91.7007 179.66L97.5513 184.127L100.779 187.578H111.472L120.147 181.893L121.156 173.975L127.208 166.665L130.638 155.904L132.05 143.519L138.708 133.976L135.48 124.839L138.708 116.921L135.48 111.845V107.581L138.708 99.0537L140.12 94.5868L138.708 90.12L144.357 84.4349L147.787 84.841L149.602 81.9985L146.778 82.8106L142.743 79.562H140.12L145.164 72.0496H149.602L147.787 67.7858L153.032 56.4157V47.0759H157.471L161.102 42L164.128 43.4213L161.102 45.2486V48.4972L164.128 47.0759L166.953 50.7306V56.4157V67.7858L170.584 69.6132L174.216 70.6284L170.584 74.283L169.777 77.9377L174.216 79.562V81.9985L178.049 84.841L175.426 90.12H178.049V99.0537L179.461 102.302L178.049 108.393L180.47 114.078V120.373L182.487 124.839H187.733L190.759 120.373L193.382 122.606L195.399 120.373H198.425L199.434 126.87L204.881 128.9V132.758L210.53 135.397L211.942 138.24L210.53 142.301L213.355 143.519L209.32 146.971L210.53 151.031V157.326L213.355 159.965V163.417L210.53 168.696L217.188 176.411V182.908L220.214 184.127V187.578L223.644 193.263L221.828 199.557L220.214 203.212V209.506L221.828 212.958V218.846L228.688 226.765L237.968 235.292H243.213L246.24 236.307L247.854 243.008L251.283 241.586L252.897 247.271H257.336L260.765 251.941L262.783 248.896L265.204 253.363L269.239 257.626L270.248 261.89L266.213 260.469V264.124L274.888 272.042L276.905 284.833L277.914 297.422V306.355H280.133L281.142 301.076L285.782 307.371V296.001L288.001 297.422L289.01 302.498L296.878 307.371V304.325H299.501V308.995L302.124 311.634L299.501 314.274V318.132L296.878 323.005L301.115 329.299L303.738 326.862L307.773 334.578L306.361 336.202L309.589 341.887L312.413 340.669L316.65 344.73V349.603L320.281 356.1L325.93 357.724V367.47L330.369 370.312L331.176 374.982L330.369 380.667L334 384.525L332.184 390.413L331.176 405.844L328.553 407.874V413.56L330.369 417.62L334 429.599L328.553 428.787L325.93 431.63H318.869L314.834 428.787L309.589 431.63L303.738 433.457L304.343 437.315L301.115 441.173L296.878 437.315L293.045 443L290.019 437.315L285.782 431.63H277.914L273.274 428.787H265.406L260.16 426.96L250.678 434.269Z" fill="#D99830"/>
<path d="M250.678 434.269L109.253 420.463L111.875 358.942L57 356.912L63.6577 163.417L67.4909 165.041L72.9381 165.853L78.587 168.696H83.2272L86.0517 177.426L91.7007 179.66L97.5513 184.127L100.779 187.578H111.472L120.147 181.893L121.156 173.975L127.208 166.665L130.638 155.904L132.05 143.519L138.708 133.976L135.48 124.839L138.708 116.921L135.48 111.845V107.581L138.708 99.0537L140.12 94.5868L138.708 90.12L144.357 84.4349L147.787 84.841L149.602 81.9985L146.778 82.8106L142.743 79.562H140.12L145.164 72.0496H149.602L147.787 67.7858L153.032 56.4157V47.0759H157.471L161.102 42L164.128 43.4213L161.102 45.2486V48.4972L164.128 47.0759L166.953 50.7306V56.4157V67.7858L170.584 69.6132L174.216 70.6284L170.584 74.283L169.777 77.9377L174.216 79.562V81.9985L178.049 84.841L175.426 90.12H178.049V99.0537L179.461 102.302L178.049 108.393L180.47 114.078V120.373L182.487 124.839H187.733L190.759 120.373L193.382 122.606L195.399 120.373H198.425L199.434 126.87L204.881 128.9V132.758L210.53 135.397L211.942 138.24L210.53 142.301L213.355 143.519L209.32 146.971L210.53 151.031V157.326L213.355 159.965V163.417L210.53 168.696L217.188 176.411V182.908L220.214 184.127V187.578L223.644 193.263L221.828 199.557L220.214 203.212V209.506L221.828 212.958V218.846L228.688 226.765L237.968 235.292H243.213L246.24 236.307L247.854 243.008L251.283 241.586L252.897 247.271H257.336L260.765 251.941L262.783 248.896L265.204 253.363L269.239 257.626L270.248 261.89L266.213 260.469V264.124L274.888 272.042L276.905 284.833L277.914 297.422V306.355H280.133L281.142 301.076L285.782 307.371V296.001L288.001 297.422L289.01 302.498L296.878 307.371V304.325H299.501V308.995L302.124 311.634L299.501 314.274V318.132L296.878 323.005L301.115 329.299L303.738 326.862L307.773 334.578L306.361 336.202L309.589 341.887L312.413 340.669L316.65 344.73V349.603L320.281 356.1L325.93 357.724V367.47L330.369 370.312L331.176 374.982L330.369 380.667L334 384.525L332.184 390.413L331.176 405.844L328.553 407.874V413.56L330.369 417.62L334 429.599L328.553 428.787L325.93 431.63H318.869L314.834 428.787L309.589 431.63L303.738 433.457L304.343 437.315L301.115 441.173L296.878 437.315L293.045 443L290.019 437.315L285.782 431.63H277.914L273.274 428.787H265.406L260.16 426.96L250.678 434.269Z" stroke="black"/>
</g>
<defs>
<filter id="filter0_d_79_68" x="46.4832" y="31.3704" width="298.225" height="422.599" filterUnits="userSpaceOnUse" color-interpolation-filters="sRGB">
<feFlood flood-opacity="0" result="BackgroundImageFix"/>
<feColorMatrix in="SourceAlpha" type="matrix" values="0 0 0 0 0 0 0 0 0 0 0 0 0 0 0 0 0 0 127 0" result="hardAlpha"/>
<feOffset/>
<feGaussianBlur stdDeviation="5"/>
<feComposite in2="hardAlpha" operator="out"/>
<feColorMatrix type="matrix" values="0 0 0 0 0 0 0 0 0 0 0 0 0 0 0 0 0 0 0.5 0"/>
<feBlend mode="normal" in2="BackgroundImageFix" result="effect1_dropShadow_79_68"/>
<feBlend mode="normal" in="SourceGraphic" in2="effect1_dropShadow_79_68" result="shape"/>
</filter>
</defs>
</svg>
