<svg width="325" height="353" viewBox="0 0 325 353" fill="none" xmlns="http://www.w3.org/2000/svg">
<g filter="url(#filter0_d_79_44)">
<path fill-rule="evenodd" clip-rule="evenodd" d="M256.459 302.111H253.822L248.143 298.46L244.695 290.55L235.973 277.974H239.827V266.818L235.973 254.445L230.09 250.997L224.411 247.548L220.557 250.997H213.255V247.548L217.717 244.303V234.77V226.048L213.255 218.746L210.01 226.048V231.93L207.17 237.204L204.533 240.246L202.099 238.421L198.854 240.246H194.391L191.349 242.68L192.566 238.421V234.77H200.882L202.91 217.732L207.17 211.849L211.632 207.184L208.387 198.868L213.255 196.028L210.01 189.537V183.452L208.387 186.495V192.783L202.91 197.651L198.854 208.401H194.391L191.349 210.632L181.815 217.732L179.381 222.6L175.527 227.873V231.93L172.282 234.77L167.008 227.873V224.019L165.183 218.746V213.066L157.272 207.184V201.91L155.447 197.651H147.942L146.522 192.783L144.088 189.537V186.495H147.942L147.333 182.438H142.871V179.193L138.205 176.556H132.526L129.281 179.193L123.804 174.325L117.516 171.079L112.04 174.325L93.7843 161.343L88.5106 164.994H73.9063L59.9106 166.617H55.8539L52 51H162.528H218.028L272.28 54.2454L256.459 302.111ZM207.17 252.011L202.91 255.459L200.679 259.922L198.448 255.459L191.957 257.893L187.292 255.459L191.957 252.011L198.448 248.563L202.91 250.591L207.17 252.011Z" fill="#D99830"/>
<path d="M253.822 302.111L253.552 302.532L253.675 302.611H253.822V302.111ZM256.459 302.111V302.611H256.928L256.958 302.143L256.459 302.111ZM248.143 298.46L247.684 298.66L247.745 298.799L247.872 298.881L248.143 298.46ZM244.695 290.55L245.153 290.35L245.133 290.305L245.105 290.265L244.695 290.55ZM235.973 277.974V277.474H235.017L235.562 278.259L235.973 277.974ZM239.827 277.974V278.474H240.327V277.974H239.827ZM239.827 266.818H240.327V266.742L240.304 266.669L239.827 266.818ZM235.973 254.445L236.45 254.296L236.392 254.111L236.225 254.014L235.973 254.445ZM230.09 250.997L229.831 251.424L229.837 251.428L230.09 250.997ZM224.411 247.548L224.67 247.121L224.354 246.929L224.078 247.176L224.411 247.548ZM220.557 250.997V251.497H220.748L220.89 251.369L220.557 250.997ZM213.255 250.997H212.755V251.497H213.255V250.997ZM213.255 247.548L212.961 247.144L212.755 247.294V247.548H213.255ZM217.717 244.303L218.011 244.707L218.217 244.558V244.303H217.717ZM217.717 226.048H218.217V225.907L218.144 225.787L217.717 226.048ZM213.255 218.746L213.682 218.485L213.185 217.672L212.798 218.543L213.255 218.746ZM210.01 226.048L209.553 225.845L209.51 225.942V226.048H210.01ZM210.01 231.93L210.45 232.167L210.51 232.056V231.93H210.01ZM207.17 237.204L207.548 237.531L207.584 237.49L207.61 237.441L207.17 237.204ZM204.533 240.246L204.233 240.646L204.606 240.926L204.911 240.574L204.533 240.246ZM202.099 238.421L202.399 238.021L202.138 237.825L201.854 237.985L202.099 238.421ZM198.854 240.246V240.746H198.985L199.099 240.682L198.854 240.246ZM194.391 240.246V239.746H194.216L194.079 239.856L194.391 240.246ZM191.349 242.68L190.868 242.543L190.437 244.05L191.661 243.071L191.349 242.68ZM192.566 238.421L193.046 238.558L193.066 238.491V238.421H192.566ZM192.566 234.77V234.27H192.066V234.77H192.566ZM200.882 234.77V235.27H201.326L201.378 234.829L200.882 234.77ZM202.91 217.732L202.505 217.438L202.429 217.543L202.414 217.672L202.91 217.732ZM207.17 211.849L206.809 211.504L206.785 211.528L206.765 211.556L207.17 211.849ZM211.632 207.184L211.994 207.53L212.214 207.299L212.098 207.002L211.632 207.184ZM208.387 198.868L208.135 198.436L207.766 198.651L207.921 199.05L208.387 198.868ZM213.255 196.028L213.507 196.46L213.912 196.224L213.702 195.804L213.255 196.028ZM210.01 189.537H209.51V189.655L209.562 189.761L210.01 189.537ZM210.01 183.452H210.51L209.568 183.217L210.01 183.452ZM208.387 186.495L207.946 186.259L207.887 186.37V186.495H208.387ZM208.387 192.783L208.719 193.156L208.887 193.007V192.783H208.387ZM202.91 197.651L202.578 197.277L202.486 197.359L202.442 197.474L202.91 197.651ZM198.854 208.401V208.901H199.199L199.321 208.578L198.854 208.401ZM194.391 208.401V207.901H194.227L194.095 207.998L194.391 208.401ZM191.349 210.632L191.053 210.229L191.05 210.231L191.349 210.632ZM181.815 217.732L181.517 217.331L181.421 217.402L181.368 217.508L181.815 217.732ZM179.381 222.6L179.785 222.895L179.81 222.861L179.828 222.823L179.381 222.6ZM175.527 227.873L175.124 227.578L175.027 227.71V227.873H175.527ZM175.527 231.93L175.857 232.306L176.027 232.157V231.93H175.527ZM172.282 234.77L171.885 235.074L172.209 235.498L172.611 235.146L172.282 234.77ZM167.008 227.873H166.508V228.043L166.611 228.177L167.008 227.873ZM167.008 224.019H167.508V223.935L167.481 223.856L167.008 224.019ZM165.183 218.746H164.683V218.83L164.71 218.909L165.183 218.746ZM165.183 213.066H165.683V212.815L165.481 212.665L165.183 213.066ZM157.272 207.184H156.772V207.435L156.974 207.585L157.272 207.184ZM157.272 201.91H157.772V201.808L157.732 201.713L157.272 201.91ZM155.447 197.651L155.906 197.454L155.776 197.151H155.447V197.651ZM147.942 197.651L147.462 197.791L147.567 198.151H147.942V197.651ZM146.522 192.783L147.002 192.643L146.976 192.555L146.922 192.483L146.522 192.783ZM144.088 189.537H143.588V189.704L143.688 189.837L144.088 189.537ZM144.088 186.495V185.995H143.588V186.495H144.088ZM147.942 186.495V186.995H148.522L148.436 186.421L147.942 186.495ZM147.333 182.438L147.828 182.364L147.764 181.938H147.333V182.438ZM142.871 182.438H142.371V182.938H142.871V182.438ZM142.871 179.193H143.371V178.901L143.117 178.757L142.871 179.193ZM138.205 176.556L138.451 176.12L138.337 176.056H138.205V176.556ZM132.526 176.556V176.056H132.349L132.211 176.168L132.526 176.556ZM129.281 179.193L128.948 179.566L129.266 179.849L129.596 179.581L129.281 179.193ZM123.804 174.325L124.136 173.951L124.089 173.909L124.033 173.88L123.804 174.325ZM117.516 171.079L117.745 170.635L117.499 170.508L117.261 170.649L117.516 171.079ZM112.04 174.325L111.75 174.732L112.015 174.92L112.294 174.755L112.04 174.325ZM93.7843 161.343L94.0741 160.936L93.7881 160.732L93.4997 160.932L93.7843 161.343ZM88.5106 164.994V165.494H88.6667L88.7952 165.405L88.5106 164.994ZM73.9063 164.994V164.494H73.8774L73.8487 164.497L73.9063 164.994ZM59.9106 166.617V167.117H59.9395L59.9682 167.113L59.9106 166.617ZM55.8539 166.617L55.3542 166.633L55.3703 167.117H55.8539V166.617ZM52 51V50.5H51.4831L51.5003 51.0167L52 51ZM218.028 51L218.058 50.5009L218.043 50.5H218.028V51ZM272.28 54.2454L272.779 54.2772L272.811 53.7763L272.31 53.7463L272.28 54.2454ZM202.91 255.459L202.596 255.071L202.512 255.139L202.463 255.236L202.91 255.459ZM207.17 252.011L207.484 252.4L208.194 251.825L207.328 251.537L207.17 252.011ZM200.679 259.922L200.232 260.145L200.679 261.04L201.126 260.145L200.679 259.922ZM198.448 255.459L198.895 255.236L198.694 254.833L198.272 254.991L198.448 255.459ZM191.957 257.893L191.726 258.336L191.924 258.44L192.133 258.361L191.957 257.893ZM187.292 255.459L186.995 255.057L186.351 255.532L187.061 255.902L187.292 255.459ZM191.957 252.011L191.723 251.569L191.69 251.587L191.66 251.609L191.957 252.011ZM198.448 248.563L198.655 248.108L198.431 248.006L198.213 248.121L198.448 248.563ZM202.91 250.591L202.703 251.046L202.727 251.057L202.752 251.065L202.91 250.591ZM253.822 302.611H256.459V301.611H253.822V302.611ZM247.872 298.881L253.552 302.532L254.093 301.691L248.413 298.04L247.872 298.881ZM244.236 290.75L247.684 298.66L248.601 298.261L245.153 290.35L244.236 290.75ZM235.562 278.259L244.284 290.835L245.105 290.265L236.383 277.689L235.562 278.259ZM239.827 277.474H235.973V278.474H239.827V277.474ZM239.327 266.818V277.974H240.327V266.818H239.327ZM235.495 254.594L239.349 266.967L240.304 266.669L236.45 254.296L235.495 254.594ZM229.837 251.428L235.72 254.876L236.225 254.014L230.343 250.565L229.837 251.428ZM224.151 247.976L229.831 251.424L230.35 250.569L224.67 247.121L224.151 247.976ZM220.89 251.369L224.744 247.921L224.078 247.176L220.224 250.624L220.89 251.369ZM213.255 251.497H220.557V250.497H213.255V251.497ZM212.755 247.548V250.997H213.755V247.548H212.755ZM217.423 243.899L212.961 247.144L213.549 247.953L218.011 244.707L217.423 243.899ZM217.217 234.77V244.303H218.217V234.77H217.217ZM217.217 226.048V234.77H218.217V226.048H217.217ZM212.828 219.006L217.291 226.309L218.144 225.787L213.682 218.485L212.828 219.006ZM210.466 226.251L213.712 218.949L212.798 218.543L209.553 225.845L210.466 226.251ZM210.51 231.93V226.048H209.51V231.93H210.51ZM207.61 237.441L210.45 232.167L209.569 231.693L206.73 236.967L207.61 237.441ZM204.911 240.574L207.548 237.531L206.792 236.876L204.155 239.919L204.911 240.574ZM201.799 238.821L204.233 240.646L204.833 239.846L202.399 238.021L201.799 238.821ZM199.099 240.682L202.344 238.857L201.854 237.985L198.608 239.811L199.099 240.682ZM194.391 240.746H198.854V239.746H194.391V240.746ZM191.661 243.071L194.703 240.637L194.079 239.856L191.036 242.29L191.661 243.071ZM192.085 238.283L190.868 242.543L191.829 242.818L193.046 238.558L192.085 238.283ZM192.066 234.77V238.421H193.066V234.77H192.066ZM200.882 234.27H192.566V235.27H200.882V234.27ZM202.414 217.672L200.385 234.711L201.378 234.829L203.407 217.791L202.414 217.672ZM206.765 211.556L202.505 217.438L203.315 218.025L207.575 212.143L206.765 211.556ZM211.271 206.838L206.809 211.504L207.531 212.195L211.994 207.53L211.271 206.838ZM207.921 199.05L211.166 207.366L212.098 207.002L208.853 198.686L207.921 199.05ZM213.003 195.596L208.135 198.436L208.639 199.3L213.507 196.46L213.003 195.596ZM209.562 189.761L212.808 196.252L213.702 195.804L210.457 189.314L209.562 189.761ZM209.51 183.452V189.537H210.51V183.452H209.51ZM208.828 186.73L210.451 183.687L209.568 183.217L207.946 186.259L208.828 186.73ZM208.887 192.783V186.495H207.887V192.783H208.887ZM203.242 198.024L208.719 193.156L208.055 192.409L202.578 197.277L203.242 198.024ZM199.321 208.578L203.378 197.827L202.442 197.474L198.386 208.225L199.321 208.578ZM194.391 208.901H198.854V207.901H194.391V208.901ZM191.644 211.035L194.687 208.804L194.095 207.998L191.053 210.229L191.644 211.035ZM182.114 218.133L191.647 211.033L191.05 210.231L181.517 217.331L182.114 218.133ZM179.828 222.823L182.263 217.955L181.368 217.508L178.934 222.376L179.828 222.823ZM175.931 228.168L179.785 222.895L178.978 222.305L175.124 227.578L175.931 228.168ZM176.027 231.93V227.873H175.027V231.93H176.027ZM172.611 235.146L175.857 232.306L175.198 231.554L171.953 234.393L172.611 235.146ZM166.611 228.177L171.885 235.074L172.679 234.466L167.405 227.57L166.611 228.177ZM166.508 224.019V227.873H167.508V224.019H166.508ZM164.71 218.909L166.536 224.183L167.481 223.856L165.655 218.582L164.71 218.909ZM164.683 213.066V218.746H165.683V213.066H164.683ZM156.974 207.585L164.884 213.468L165.481 212.665L157.57 206.783L156.974 207.585ZM156.772 201.91V207.184H157.772V201.91H156.772ZM154.987 197.848L156.813 202.107L157.732 201.713L155.906 197.454L154.987 197.848ZM147.942 198.151H155.447V197.151H147.942V198.151ZM146.042 192.923L147.462 197.791L148.422 197.511L147.002 192.643L146.042 192.923ZM143.688 189.837L146.122 193.083L146.922 192.483L144.488 189.237L143.688 189.837ZM143.588 186.495V189.537H144.588V186.495H143.588ZM147.942 185.995H144.088V186.995H147.942V185.995ZM146.839 182.512L147.447 186.569L148.436 186.421L147.828 182.364L146.839 182.512ZM142.871 182.938H147.333V181.938H142.871V182.938ZM142.371 179.193V182.438H143.371V179.193H142.371ZM137.959 176.991L142.625 179.628L143.117 178.757L138.451 176.12L137.959 176.991ZM132.526 177.056H138.205V176.056H132.526V177.056ZM129.596 179.581L132.841 176.944L132.211 176.168L128.965 178.805L129.596 179.581ZM123.472 174.698L128.948 179.566L129.613 178.819L124.136 173.951L123.472 174.698ZM117.287 171.523L123.575 174.769L124.033 173.88L117.745 170.635L117.287 171.523ZM112.294 174.755L117.771 171.509L117.261 170.649L111.785 173.894L112.294 174.755ZM93.4945 161.75L111.75 174.732L112.329 173.917L94.0741 160.936L93.4945 161.75ZM88.7952 165.405L94.0689 161.754L93.4997 160.932L88.2259 164.583L88.7952 165.405ZM73.9063 165.494H88.5106V164.494H73.9063V165.494ZM59.9682 167.113L73.9639 165.491L73.8487 164.497L59.853 166.12L59.9682 167.113ZM55.8539 167.117H59.9106V166.117H55.8539V167.117ZM51.5003 51.0167L55.3542 166.633L56.3536 166.6L52.4997 50.9833L51.5003 51.0167ZM162.528 50.5H52V51.5H162.528V50.5ZM218.028 50.5H162.528V51.5H218.028V50.5ZM272.31 53.7463L218.058 50.5009L217.998 51.4991L272.25 54.7445L272.31 53.7463ZM256.958 302.143L272.779 54.2772L271.781 54.2135L255.96 302.08L256.958 302.143ZM203.225 255.848L207.484 252.4L206.855 251.622L202.596 255.071L203.225 255.848ZM201.126 260.145L203.357 255.683L202.463 255.236L200.232 259.698L201.126 260.145ZM198.001 255.683L200.232 260.145L201.126 259.698L198.895 255.236L198.001 255.683ZM192.133 258.361L198.623 255.927L198.272 254.991L191.782 257.425L192.133 258.361ZM187.061 255.902L191.726 258.336L192.188 257.45L187.523 255.016L187.061 255.902ZM191.66 251.609L186.995 255.057L187.589 255.861L192.254 252.413L191.66 251.609ZM198.213 248.121L191.723 251.569L192.192 252.452L198.682 249.004L198.213 248.121ZM203.117 250.136L198.655 248.108L198.241 249.018L202.703 251.046L203.117 250.136ZM207.328 251.537L203.068 250.117L202.752 251.065L207.012 252.485L207.328 251.537Z" fill="black"/>
</g>
<defs>
<filter id="filter0_d_79_44" x="41.4832" y="40.5" width="241.328" height="272.111" filterUnits="userSpaceOnUse" color-interpolation-filters="sRGB">
<feFlood flood-opacity="0" result="BackgroundImageFix"/>
<feColorMatrix in="SourceAlpha" type="matrix" values="0 0 0 0 0 0 0 0 0 0 0 0 0 0 0 0 0 0 127 0" result="hardAlpha"/>
<feOffset/>
<feGaussianBlur stdDeviation="5"/>
<feComposite in2="hardAlpha" operator="out"/>
<feColorMatrix type="matrix" values="0 0 0 0 0 0 0 0 0 0 0 0 0 0 0 0 0 0 0.5 0"/>
<feBlend mode="normal" in2="BackgroundImageFix" result="effect1_dropShadow_79_44"/>
<feBlend mode="normal" in="SourceGraphic" in2="effect1_dropShadow_79_44" result="shape"/>
</filter>
</defs>
</svg>
