<svg width="182" height="176" viewBox="0 0 182 176" fill="none" xmlns="http://www.w3.org/2000/svg">
<g filter="url(#filter0_d_79_85)">
<path d="M43 51.4699V40L55.8597 46.9639L66.9389 54.747L73.2698 51.4699H87.7122L93.2518 46.9639L98 51.4699V63.9639L93.2518 75.4337L84.5468 96.5301H73.2698L70.1043 108L58.6295 103.494L49.7266 86.0843V70.9277L43 51.4699Z" fill="#D99830"/>
<path d="M43 51.4699V40L55.8597 46.9639L66.9389 54.747L73.2698 51.4699H87.7122L93.2518 46.9639L98 51.4699V63.9639L93.2518 75.4337L84.5468 96.5301H73.2698L70.1043 108L58.6295 103.494L49.7266 86.0843V70.9277L43 51.4699Z" stroke="black"/>
</g>
<defs>
<filter id="filter0_d_79_85" x="32.5" y="29.1606" width="76" height="89.5078" filterUnits="userSpaceOnUse" color-interpolation-filters="sRGB">
<feFlood flood-opacity="0" result="BackgroundImageFix"/>
<feColorMatrix in="SourceAlpha" type="matrix" values="0 0 0 0 0 0 0 0 0 0 0 0 0 0 0 0 0 0 127 0" result="hardAlpha"/>
<feOffset/>
<feGaussianBlur stdDeviation="5"/>
<feComposite in2="hardAlpha" operator="out"/>
<feColorMatrix type="matrix" values="0 0 0 0 0 0 0 0 0 0 0 0 0 0 0 0 0 0 0.5 0"/>
<feBlend mode="normal" in2="BackgroundImageFix" result="effect1_dropShadow_79_85"/>
<feBlend mode="normal" in="SourceGraphic" in2="effect1_dropShadow_79_85" result="shape"/>
</filter>
</defs>
</svg>
