<svg width="169" height="134" viewBox="0 0 169 134" fill="none" xmlns="http://www.w3.org/2000/svg">
<g filter="url(#filter0_d_80_90)">
<path d="M16.7167 98.4937L11 89.9873L16.7167 11L24.8833 13.4304L30.8042 11L36.725 13.4304V19.7089L41.2167 26.3924L45.5042 23.557L53.2625 26.3924V33.481L55.3042 37.1266L59.1833 40.5696L69.1875 47.6582V51.7089L78.9875 58.7975L81.8458 51.7089L89.4 53.5316L99.8125 58.7975H109L115.533 64.4684L117.779 60.4177L121.863 58.7975L129.825 60.4177V64.4684L132.071 70.9494V76.4177L158 95.2532L154.529 98.4937H138.808H121.863L106.958 111.658H97.7708V116.114V123L94.9125 116.114H92.0542L89.4 111.658H84.5L81.8458 106.797L84.5 103.354L81.8458 100.924L76.3333 106.797L72.0458 103.354L78.9875 95.2532H69.1875L72.0458 98.4937L65.7167 100.924L59.1833 106.797L50.6083 111.658L39.175 103.354L21.4125 95.2532V98.4937H16.7167Z" fill="#D99830"/>
<path d="M16.7167 98.4937L11 89.9873L16.7167 11L24.8833 13.4304L30.8042 11L36.725 13.4304V19.7089L41.2167 26.3924L45.5042 23.557L53.2625 26.3924V33.481L55.3042 37.1266L59.1833 40.5696L69.1875 47.6582V51.7089L78.9875 58.7975L81.8458 51.7089L89.4 53.5316L99.8125 58.7975H109L115.533 64.4684L117.779 60.4177L121.863 58.7975L129.825 60.4177V64.4684L132.071 70.9494V76.4177L158 95.2532L154.529 98.4937H138.808H121.863L106.958 111.658H97.7708V116.114V123L94.9125 116.114H92.0542L89.4 111.658H84.5L81.8458 106.797L84.5 103.354L81.8458 100.924L76.3333 106.797L72.0458 103.354L78.9875 95.2532H69.1875L72.0458 98.4937L65.7167 100.924L59.1833 106.797L50.6083 111.658L39.175 103.354L21.4125 95.2532V98.4937H16.7167Z" stroke="black"/>
</g>
<defs>
<filter id="filter0_d_80_90" x="0.48877" y="0.343262" width="168.296" height="132.848" filterUnits="userSpaceOnUse" color-interpolation-filters="sRGB">
<feFlood flood-opacity="0" result="BackgroundImageFix"/>
<feColorMatrix in="SourceAlpha" type="matrix" values="0 0 0 0 0 0 0 0 0 0 0 0 0 0 0 0 0 0 127 0" result="hardAlpha"/>
<feOffset/>
<feGaussianBlur stdDeviation="5"/>
<feComposite in2="hardAlpha" operator="out"/>
<feColorMatrix type="matrix" values="0 0 0 0 0 0 0 0 0 0 0 0 0 0 0 0 0 0 0.5 0"/>
<feBlend mode="normal" in2="BackgroundImageFix" result="effect1_dropShadow_80_90"/>
<feBlend mode="normal" in="SourceGraphic" in2="effect1_dropShadow_80_90" result="shape"/>
</filter>
</defs>
</svg>
