<svg width="324" height="479" viewBox="0 0 324 479" fill="none" xmlns="http://www.w3.org/2000/svg">
<g filter="url(#filter0_d_224_20)">
<path d="M313 380.817L300.62 33.3026L290.472 31.8833L282.151 46.6841L285.195 30.0586L260.434 11L254.548 13.0275L251.301 20.732L246.836 18.0963L239.53 14.6495L237.297 30.0586L231.614 22.7595L224.511 33.3026L229.382 41.0071H220.249L224.511 50.5364L216.595 46.6841L209.289 50.5364V61.2822L213.754 57.2272L209.289 67.9729L218.219 70.0004L207.665 72.2307L196.3 67.9729L193.458 73.8527L198.126 79.327L201.577 87.6398L193.458 83.7875L194.879 95.3443L181.484 73.8527L169.104 87.6398L166.262 97.5745L170.727 107.104L161.188 117.85L158.55 122.716L150.431 140.355L123.032 153.736H110.449L105.375 162.049L90.5591 165.699L77.9758 174.214L69.4516 170.159L48.547 189.826L46.1116 194.692L29.672 204.424L27.2366 217.197L22.7715 219.428L20.7419 204.424L15.4651 217.197L13.4355 223.888L17.9005 229.16V240.514L13.4355 260.586L20.7419 268.899V273.562L27.2366 276.806L29.672 282.686L35.9637 287.349V297.487L20.7419 285.119L29.672 299.92L27.2366 303.772L11 285.119L15.4651 297.487L27.2366 308.232L37.9933 321.209L40.2258 331.752L50.9825 345.944L59.7097 357.704L63.7688 379.195L78.1788 399.876L82.6438 422.178V440.02L78.1788 444.481L72.6989 441.642L76.5551 459.079L81.0202 456.849L93.6035 464.959L101.925 468H118.567L127.091 464.959L136.224 462.728L141.298 453.402L151.243 449.955L160.173 440.02L180.672 434.952H196.3L199.141 437.182L202.185 434.952L213.754 432.519L216.19 434.952L218.219 432.519H224.511L231.005 413.055L254.954 401.701L263.681 394.807H287.427L313 380.817Z" fill="#D99830"/>
<path d="M313 380.817L300.62 33.3026L290.472 31.8833L282.151 46.6841L285.195 30.0586L260.434 11L254.548 13.0275L251.301 20.732L246.836 18.0963L239.53 14.6495L237.297 30.0586L231.614 22.7595L224.511 33.3026L229.382 41.0071H220.249L224.511 50.5364L216.595 46.6841L209.289 50.5364V61.2822L213.754 57.2272L209.289 67.9729L218.219 70.0004L207.665 72.2307L196.3 67.9729L193.458 73.8527L198.126 79.327L201.577 87.6398L193.458 83.7875L194.879 95.3443L181.484 73.8527L169.104 87.6398L166.262 97.5745L170.727 107.104L161.188 117.85L158.55 122.716L150.431 140.355L123.032 153.736H110.449L105.375 162.049L90.5591 165.699L77.9758 174.214L69.4516 170.159L48.547 189.826L46.1116 194.692L29.672 204.424L27.2366 217.197L22.7715 219.428L20.7419 204.424L15.4651 217.197L13.4355 223.888L17.9005 229.16V240.514L13.4355 260.586L20.7419 268.899V273.562L27.2366 276.806L29.672 282.686L35.9637 287.349V297.487L20.7419 285.119L29.672 299.92L27.2366 303.772L11 285.119L15.4651 297.487L27.2366 308.232L37.9933 321.209L40.2258 331.752L50.9825 345.944L59.7097 357.704L63.7688 379.195L78.1788 399.876L82.6438 422.178V440.02L78.1788 444.481L72.6989 441.642L76.5551 459.079L81.0202 456.849L93.6035 464.959L101.925 468H118.567L127.091 464.959L136.224 462.728L141.298 453.402L151.243 449.955L160.173 440.02L180.672 434.952H196.3L199.141 437.182L202.185 434.952L213.754 432.519L216.19 434.952L218.219 432.519H224.511L231.005 413.055L254.954 401.701L263.681 394.807H287.427L313 380.817Z" stroke="black"/>
</g>
<defs>
<filter id="filter0_d_224_20" x="0.529785" y="0.439697" width="322.981" height="478.06" filterUnits="userSpaceOnUse" color-interpolation-filters="sRGB">
<feFlood flood-opacity="0" result="BackgroundImageFix"/>
<feColorMatrix in="SourceAlpha" type="matrix" values="0 0 0 0 0 0 0 0 0 0 0 0 0 0 0 0 0 0 127 0" result="hardAlpha"/>
<feOffset/>
<feGaussianBlur stdDeviation="5"/>
<feComposite in2="hardAlpha" operator="out"/>
<feColorMatrix type="matrix" values="0 0 0 0 0 0 0 0 0 0 0 0 0 0 0 0 0 0 0.5 0"/>
<feBlend mode="normal" in2="BackgroundImageFix" result="effect1_dropShadow_224_20"/>
<feBlend mode="normal" in="SourceGraphic" in2="effect1_dropShadow_224_20" result="shape"/>
</filter>
</defs>
</svg>
